<svg data-v-423bf9ae="" xmlns="http://www.w3.org/2000/svg" viewBox="0 0 475 111" class="iconLeft"><!----><defs data-v-423bf9ae=""><linearGradient data-v-423bf9ae="" gradientTransform="rotate(25)" id="881fb0ad-e206-4ed8-988f-728e2f4bc66c" x1="0%" y1="0%" x2="100%" y2="0%"><stop data-v-423bf9ae="" offset="0%" style="stop-color: rgb(9, 120, 166); stop-opacity: 1;"></stop><stop data-v-423bf9ae="" offset="100%" style="stop-color: rgb(251, 148, 71); stop-opacity: 1;"></stop></linearGradient></defs><!----><g data-v-423bf9ae="" id="aae6ddf9-6bb5-4a3b-a669-51099c0582b1" fill="#ffffff" transform="matrix(5.371530849613673,0,0,5.371530849613673,93.3560125271037,4.272775562470116)"><path d="M5.25 9.49L3.18 4.26L0.92 4.26L0.92 14.92L2.77 14.92L2.77 7.77L4.42 11.79L5.92 11.79L7.59 7.76L7.59 14.92L9.44 14.92L9.44 4.26L7.32 4.26ZM12.94 9.63C12.94 8.37 13.27 8.01 14.24 8.01C15.20 8.01 15.54 8.37 15.54 9.63L15.54 11.80C15.54 13.06 15.20 13.44 14.24 13.44C13.27 13.44 12.94 13.06 12.94 11.80ZM14.24 6.34C12.05 6.34 11.05 7.34 11.05 9.65L11.05 11.79C11.05 14.11 12.05 15.09 14.24 15.09C16.42 15.09 17.43 14.11 17.43 11.79L17.43 9.65C17.43 7.34 16.42 6.34 14.24 6.34ZM23.07 14.92L23.07 5.96L25.59 5.96L25.59 4.26L18.61 4.26L18.61 5.96L21.13 5.96L21.13 14.92ZM26.03 6.51L26.03 14.92L27.92 14.92L27.92 10.15C27.92 8.79 28.69 8.30 29.60 8.30C29.81 8.30 30.00 8.32 30.17 8.34L30.17 6.40C30.06 6.38 29.92 6.37 29.78 6.37C28.91 6.37 28.18 6.75 27.78 7.27L27.66 6.51ZM35.55 14.92L37.21 14.92L37.21 9.24C37.21 7.07 35.99 6.34 34.20 6.34C32.23 6.34 31.19 7.17 31.19 9.24L32.89 9.24C32.89 8.26 33.33 7.90 34.19 7.90C35.01 7.90 35.42 8.32 35.42 9.28L35.42 10.14C35.03 10.09 34.57 10.05 34.20 10.05C31.91 10.05 30.94 11.00 30.94 12.70C30.94 14.25 31.93 15.09 33.36 15.09C34.30 15.09 35.03 14.80 35.48 14.28ZM35.42 12.05C35.42 13.01 34.73 13.54 33.96 13.54C33.19 13.54 32.80 13.19 32.80 12.54C32.80 11.77 33.22 11.37 34.36 11.37C34.62 11.37 35.13 11.40 35.42 11.45ZM38.85 6.51L38.85 14.92L40.74 14.92L40.74 9.42C40.74 8.44 41.23 8.01 42.03 8.01C42.97 8.01 43.27 8.47 43.27 9.58L43.27 14.92L45.16 14.92L45.16 9.38C45.16 7.34 44.42 6.34 42.60 6.34C41.71 6.34 41.01 6.59 40.57 7.10L40.49 6.51ZM49.88 9.77C48.80 9.60 48.47 9.38 48.47 8.74C48.47 8.26 48.82 7.95 49.63 7.95C50.53 7.95 50.86 8.33 50.88 8.96L52.61 8.96C52.61 7.28 51.59 6.34 49.62 6.34C47.77 6.34 46.65 7.22 46.65 8.82C46.65 10.58 47.70 11.20 49.43 11.44C50.53 11.58 50.92 11.82 50.92 12.57C50.92 13.16 50.48 13.48 49.69 13.48C48.71 13.48 48.30 13.12 48.29 12.42L46.49 12.42C46.49 14.10 47.47 15.09 49.57 15.09C51.58 15.09 52.78 14.17 52.78 12.45C52.78 10.56 51.39 10.00 49.88 9.77ZM56.07 6.80C56.07 5.81 56.50 5.40 57.51 5.40C57.78 5.40 58.03 5.45 58.23 5.49L58.23 4.00C57.97 3.95 57.58 3.92 57.23 3.92C55.13 3.92 54.18 4.80 54.18 7.08L54.18 14.92L56.07 14.92L56.07 8.55L58.04 8.55L58.04 6.90L56.07 6.90ZM63.53 12.40C63.49 13.13 63.18 13.54 62.22 13.54C61.25 13.54 60.87 13.02 60.87 11.98L60.87 11.28L65.35 11.28L65.35 9.55C65.35 7.34 64.33 6.34 62.22 6.34C60.06 6.34 59.02 7.49 59.02 9.58L59.02 11.79C59.02 14.11 60.05 15.09 62.23 15.09C64.39 15.09 65.23 14.15 65.28 12.40ZM62.23 7.91C63.20 7.91 63.56 8.43 63.56 9.53L63.56 9.84L60.87 9.84L60.87 9.59C60.87 8.39 61.25 7.91 62.23 7.91ZM66.84 6.51L66.84 14.92L68.73 14.92L68.73 10.15C68.73 8.79 69.50 8.30 70.41 8.30C70.62 8.30 70.81 8.32 70.98 8.34L70.98 6.40C70.87 6.38 70.73 6.37 70.59 6.37C69.72 6.37 68.99 6.75 68.59 7.27L68.47 6.51Z"></path></g><!----><g data-v-423bf9ae="" id="2d6dad82-a191-41d6-a29b-96d20a3add51" transform="matrix(1.108845011393229,0,0,1.108845011393229,0.8391227802323726,0.6662568243935354)" stroke="none" fill="#ffffff"><g><path d="M43.38 44.79c2.867.28 6.123 1.125 9.235 2.666.925.458.124.062.124.062 1.435.829 3.155.273 3.838-1.234.685-1.51.088-3.424-1.363-4.24 0 0 .556.244-.593-.301a30.655 30.655 0 0 0-11.24-2.86v-6.82c0-1.106-.9-2.002-2.003-2.002h-.443a1.994 1.994 0 0 0-2.002 1.996v6.9c-9.042.801-14.947 5.76-14.947 13.05 0 9.406 7.582 12.104 14.947 14.291v18.083c-4.104-.338-8.425-1.932-12.126-4.55-1.1-.777-.838-.642-.838-.642-1.257-1.079-2.877-.75-3.618.733l.061-.123c-.742 1.483-.32 3.547.98 4.594 0 0 .153.228 1.576 1.15 4.008 2.595 8.907 4.348 13.965 4.67v7.63a2 2 0 0 0 2.002 1.995h.443a2.003 2.003 0 0 0 2.002-2.01v-7.687c9.406-.802 15.676-6.052 15.676-13.854.073-9.843-8.093-12.54-15.676-14.874V44.79zm-12.978 6.707c0-3.791 3.28-6.124 8.53-6.635v15.166c-4.812-1.677-8.53-3.791-8.53-8.53zM52.64 76.58c0 4.229-3.5 7.072-9.26 7.729V67.684c5.177 1.677 9.26 3.791 9.26 8.895z"></path><path d="M61.29 11.06H36.904C16.583 11.06.11 27.535.11 47.857a36.695 36.695 0 0 0 11.647 26.86 3.047 3.047 0 0 0 4.166-4.449 30.601 30.601 0 0 1-9.719-22.411c0-16.955 13.745-30.7 30.7-30.7H61.29l-6.333 6.333c-1.19 1.19-1.298 3.012-.24 4.07 1.058 1.058 2.88.95 4.07-.24l10.855-10.853c.259-.26.467-.549.623-.854.756-1.077.566-2.672-.51-3.748L58.9 1.01C57.71-.18 55.888-.288 54.83.77c-1.058 1.058-.95 2.88.24 4.07l6.22 6.22z"></path></g></g><!----></svg>