<svg data-v-423bf9ae="" xmlns="http://www.w3.org/2000/svg" viewBox="0 0 376.329479191373 60" class="font"><!----><!----><!----><g data-v-423bf9ae="" id="1375a104-e821-4cf2-af50-a56c12a98d01" fill="black" transform="matrix(5.371530849613673,0,0,5.371530849613673,-4.941808517818174,-21.056400386626564)"><path d="M5.25 9.49L3.18 4.26L0.92 4.26L0.92 14.92L2.77 14.92L2.77 7.77L4.42 11.79L5.92 11.79L7.59 7.76L7.59 14.92L9.44 14.92L9.44 4.26L7.32 4.26ZM12.94 9.63C12.94 8.37 13.27 8.01 14.24 8.01C15.20 8.01 15.54 8.37 15.54 9.63L15.54 11.80C15.54 13.06 15.20 13.44 14.24 13.44C13.27 13.44 12.94 13.06 12.94 11.80ZM14.24 6.34C12.05 6.34 11.05 7.34 11.05 9.65L11.05 11.79C11.05 14.11 12.05 15.09 14.24 15.09C16.42 15.09 17.43 14.11 17.43 11.79L17.43 9.65C17.43 7.34 16.42 6.34 14.24 6.34ZM23.07 14.92L23.07 5.96L25.59 5.96L25.59 4.26L18.61 4.26L18.61 5.96L21.13 5.96L21.13 14.92ZM26.03 6.51L26.03 14.92L27.92 14.92L27.92 10.15C27.92 8.79 28.69 8.30 29.60 8.30C29.81 8.30 30.00 8.32 30.17 8.34L30.17 6.40C30.06 6.38 29.92 6.37 29.78 6.37C28.91 6.37 28.18 6.75 27.78 7.27L27.66 6.51ZM35.55 14.92L37.21 14.92L37.21 9.24C37.21 7.07 35.99 6.34 34.20 6.34C32.23 6.34 31.19 7.17 31.19 9.24L32.89 9.24C32.89 8.26 33.33 7.90 34.19 7.90C35.01 7.90 35.42 8.32 35.42 9.28L35.42 10.14C35.03 10.09 34.57 10.05 34.20 10.05C31.91 10.05 30.94 11.00 30.94 12.70C30.94 14.25 31.93 15.09 33.36 15.09C34.30 15.09 35.03 14.80 35.48 14.28ZM35.42 12.05C35.42 13.01 34.73 13.54 33.96 13.54C33.19 13.54 32.80 13.19 32.80 12.54C32.80 11.77 33.22 11.37 34.36 11.37C34.62 11.37 35.13 11.40 35.42 11.45ZM38.85 6.51L38.85 14.92L40.74 14.92L40.74 9.42C40.74 8.44 41.23 8.01 42.03 8.01C42.97 8.01 43.27 8.47 43.27 9.58L43.27 14.92L45.16 14.92L45.16 9.38C45.16 7.34 44.42 6.34 42.60 6.34C41.71 6.34 41.01 6.59 40.57 7.10L40.49 6.51ZM49.88 9.77C48.80 9.60 48.47 9.38 48.47 8.74C48.47 8.26 48.82 7.95 49.63 7.95C50.53 7.95 50.86 8.33 50.88 8.96L52.61 8.96C52.61 7.28 51.59 6.34 49.62 6.34C47.77 6.34 46.65 7.22 46.65 8.82C46.65 10.58 47.70 11.20 49.43 11.44C50.53 11.58 50.92 11.82 50.92 12.57C50.92 13.16 50.48 13.48 49.69 13.48C48.71 13.48 48.30 13.12 48.29 12.42L46.49 12.42C46.49 14.10 47.47 15.09 49.57 15.09C51.58 15.09 52.78 14.17 52.78 12.45C52.78 10.56 51.39 10.00 49.88 9.77ZM56.07 6.80C56.07 5.81 56.50 5.40 57.51 5.40C57.78 5.40 58.03 5.45 58.23 5.49L58.23 4.00C57.97 3.95 57.58 3.92 57.23 3.92C55.13 3.92 54.18 4.80 54.18 7.08L54.18 14.92L56.07 14.92L56.07 8.55L58.04 8.55L58.04 6.90L56.07 6.90ZM63.53 12.40C63.49 13.13 63.18 13.54 62.22 13.54C61.25 13.54 60.87 13.02 60.87 11.98L60.87 11.28L65.35 11.28L65.35 9.55C65.35 7.34 64.33 6.34 62.22 6.34C60.06 6.34 59.02 7.49 59.02 9.58L59.02 11.79C59.02 14.11 60.05 15.09 62.23 15.09C64.39 15.09 65.23 14.15 65.28 12.40ZM62.23 7.91C63.20 7.91 63.56 8.43 63.56 9.53L63.56 9.84L60.87 9.84L60.87 9.59C60.87 8.39 61.25 7.91 62.23 7.91ZM66.84 6.51L66.84 14.92L68.73 14.92L68.73 10.15C68.73 8.79 69.50 8.30 70.41 8.30C70.62 8.30 70.81 8.32 70.98 8.34L70.98 6.40C70.87 6.38 70.73 6.37 70.59 6.37C69.72 6.37 68.99 6.75 68.59 7.27L68.47 6.51Z"></path></g><!----><!----></svg>